<svg xmlns="http://www.w3.org/2000/svg" width="32" height="32">
    <path style="stroke:none;fill-rule:nonzero;fill:#000;fill-opacity:1" d="m16.133 24.734-.133.133-.148-.133c-6.332-5.746-10.52-9.547-10.52-13.402 0-2.664 2-4.664 4.668-4.664 2.055 0 4.055 1.332 4.762 3.144h2.476C17.945 8 19.945 6.668 22 6.668c2.668 0 4.668 2 4.668 4.664 0 3.855-4.188 7.656-10.535 13.402M22 4c-2.32 0-4.547 1.078-6 2.773C14.547 5.078 12.32 4 10 4c-4.105 0-7.332 3.215-7.332 7.332 0 5.027 4.531 9.148 11.398 15.375L16 28.465l1.934-1.758C24.8 20.48 29.332 16.359 29.332 11.332 29.332 7.215 26.105 4 22 4Zm0 0"/>
</svg>
